<svg width="160" height="29" viewBox="0 0 160 29" fill="none" xmlns="http://www.w3.org/2000/svg">
<path d="M6.0983 12.7182C7.59982 12.7182 8.86347 13.2151 9.88925 14.2089C10.915 15.2028 11.4279 16.4232 11.4279 17.8701C11.4279 19.317 10.915 20.5374 9.88925 21.5312C8.86347 22.5251 7.59982 23.022 6.0983 23.022H3.35544V28.0643H0.278076V12.7182H6.0983ZM6.0983 20.1939C6.75243 20.1939 7.29505 19.9747 7.72618 19.5362C8.15731 19.0832 8.37287 18.5278 8.37287 17.8701C8.37287 17.1978 8.15731 16.6424 7.72618 16.2039C7.29505 15.7655 6.75243 15.5462 6.0983 15.5462H3.35544V20.1939H6.0983Z" fill="#343A40"/>
<path d="M21.9945 28.0643L18.8503 22.737H16.5088V28.0643H13.4314V12.7182H19.6753C21.1174 12.7182 22.3439 13.2151 23.3548 14.2089C24.3657 15.2028 24.8712 16.4012 24.8712 17.8043C24.8712 18.7543 24.5961 19.6385 24.0461 20.457C23.496 21.2609 22.7676 21.8674 21.8607 22.2766L25.3172 28.0643H21.9945ZM16.5088 15.5462V20.0843H19.6753C20.2551 20.0843 20.7532 19.8651 21.1694 19.4266C21.5857 18.9735 21.7938 18.4328 21.7938 17.8043C21.7938 17.1758 21.5857 16.6424 21.1694 16.2039C20.7532 15.7655 20.2551 15.5462 19.6753 15.5462H16.5088Z" fill="#343A40"/>
<path d="M40.0895 26.0693C38.5137 27.6039 36.5959 28.3712 34.3362 28.3712C32.0765 28.3712 30.1587 27.6039 28.5829 26.0693C27.0219 24.5201 26.2414 22.6274 26.2414 20.3912C26.2414 18.1551 27.0219 16.2697 28.5829 14.7351C30.1587 13.1858 32.0765 12.4112 34.3362 12.4112C36.5959 12.4112 38.5137 13.1858 40.0895 14.7351C41.6654 16.2697 42.4533 18.1551 42.4533 20.3912C42.4533 22.6274 41.6654 24.5201 40.0895 26.0693ZM30.7459 24.0085C31.7123 24.9439 32.909 25.4116 34.3362 25.4116C35.7634 25.4116 36.9601 24.9439 37.9264 24.0085C38.8928 23.0585 39.3759 21.8528 39.3759 20.3912C39.3759 18.9297 38.8928 17.7239 37.9264 16.7739C36.9601 15.8239 35.7634 15.3489 34.3362 15.3489C32.909 15.3489 31.7123 15.8239 30.7459 16.7739C29.7796 17.7239 29.2965 18.9297 29.2965 20.3912C29.2965 21.8528 29.7796 23.0585 30.7459 24.0085Z" fill="#343A40"/>
<path d="M54.0481 12.7182V15.612H49.8334V28.0643H46.7561V15.612H42.5637V12.7182H54.0481Z" fill="#343A40"/>
<path d="M68.0077 26.0693C66.4319 27.6039 64.5141 28.3712 62.2544 28.3712C59.9947 28.3712 58.0769 27.6039 56.5011 26.0693C54.9401 24.5201 54.1596 22.6274 54.1596 20.3912C54.1596 18.1551 54.9401 16.2697 56.5011 14.7351C58.0769 13.1858 59.9947 12.4112 62.2544 12.4112C64.5141 12.4112 66.4319 13.1858 68.0077 14.7351C69.5836 16.2697 70.3715 18.1551 70.3715 20.3912C70.3715 22.6274 69.5836 24.5201 68.0077 26.0693ZM58.6641 24.0085C59.6305 24.9439 60.8272 25.4116 62.2544 25.4116C63.6816 25.4116 64.8783 24.9439 65.8446 24.0085C66.811 23.0585 67.2941 21.8528 67.2941 20.3912C67.2941 18.9297 66.811 17.7239 65.8446 16.7739C64.8783 15.8239 63.6816 15.3489 62.2544 15.3489C60.8272 15.3489 59.6305 15.8239 58.6641 16.7739C57.6978 17.7239 57.2146 18.9297 57.2146 20.3912C57.2146 21.8528 57.6978 23.0585 58.6641 24.0085Z" fill="#343A40"/>
<path d="M81.5658 12.7182H84.6431V28.0643H82.3017L75.6117 18.6812V28.0643H72.5344V12.7182H74.8758L81.5658 22.0793V12.7182Z" fill="#343A40"/>
<path d="M103.438 12.7182V15.612H99.2238V28.0643H96.1465V15.612H91.9541V12.7182H103.438Z" fill="#343A40"/>
<path d="M113.72 28.0643L110.575 22.737H108.234V28.0643H105.156V12.7182H111.4C112.842 12.7182 114.069 13.2151 115.08 14.2089C116.091 15.2028 116.596 16.4012 116.596 17.8043C116.596 18.7543 116.321 19.6385 115.771 20.457C115.221 21.2609 114.493 21.8674 113.586 22.2766L117.042 28.0643H113.72ZM108.234 15.5462V20.0843H111.4C111.98 20.0843 112.478 19.8651 112.894 19.4266C113.311 18.9735 113.519 18.4328 113.519 17.8043C113.519 17.1758 113.311 16.6424 112.894 16.2039C112.478 15.7655 111.98 15.5462 111.4 15.5462H108.234Z" fill="#343A40"/>
<path d="M128.889 28.0643L127.952 25.302H121.731L120.794 28.0643H117.472L122.935 12.7182H126.748L132.234 28.0643H128.889ZM122.712 22.4739H126.994L124.853 16.2039L122.712 22.4739Z" fill="#343A40"/>
<path d="M139.949 12.7182C142.09 12.7182 143.874 13.4562 145.301 14.9324C146.743 16.4085 147.464 18.2282 147.464 20.3912C147.464 22.5543 146.743 24.3739 145.301 25.8501C143.874 27.3262 142.09 28.0643 139.949 28.0643H133.75V12.7182H139.949ZM139.949 25.1705C141.302 25.1705 142.402 24.732 143.249 23.8551C144.097 22.9635 144.52 21.8089 144.52 20.3912C144.52 18.9735 144.097 17.8262 143.249 16.9493C142.402 16.0578 141.302 15.612 139.949 15.612H136.827V25.1705H139.949Z" fill="#343A40"/>
<path d="M152.724 25.1705H159.303V28.0643H149.647V12.7182H159.191V15.612H152.724V18.8785H158.634V21.7285H152.724V25.1705Z" fill="#343A40"/>
<path d="M2.63813 0.660457C3.2204 0.660457 3.70666 0.852284 4.0969 1.23594C4.48715 1.61959 4.68227 2.09764 4.68227 2.67007C4.68227 3.24251 4.48715 3.72055 4.0969 4.10421C3.70666 4.48786 3.2204 4.67969 2.63813 4.67969H0.965651V7.05469H0.315242V0.660457H2.63813ZM2.63813 4.0768C3.04076 4.0768 3.37216 3.94588 3.63232 3.68402C3.89868 3.41607 4.03186 3.07809 4.03186 2.67007C4.03186 2.26206 3.89868 1.92712 3.63232 1.66526C3.37216 1.39732 3.04076 1.26334 2.63813 1.26334H0.965651V4.0768H2.63813Z" fill="#343A40"/>
<path d="M9.22402 6.47921C8.75325 6.93594 8.17717 7.16431 7.49579 7.16431C6.81441 7.16431 6.23524 6.93594 5.75828 6.47921C5.2875 6.01639 5.05212 5.447 5.05212 4.77104C5.05212 4.09507 5.2875 3.52873 5.75828 3.072C6.23524 2.60918 6.81441 2.37777 7.49579 2.37777C8.17717 2.37777 8.75325 2.60918 9.22402 3.072C9.70099 3.52873 9.93947 4.09507 9.93947 4.77104C9.93947 5.447 9.70099 6.01639 9.22402 6.47921ZM6.19498 6.05902C6.54806 6.40613 6.98166 6.57969 7.49579 6.57969C8.00993 6.57969 8.44353 6.40613 8.79661 6.05902C9.14969 5.70581 9.32623 5.27648 9.32623 4.77104C9.32623 4.26559 9.14969 3.8393 8.79661 3.49219C8.44353 3.13898 8.00993 2.96238 7.49579 2.96238C6.98166 2.96238 6.54806 3.13898 6.19498 3.49219C5.8419 3.8393 5.66536 4.26559 5.66536 4.77104C5.66536 5.27648 5.8419 5.70581 6.19498 6.05902Z" fill="#343A40"/>
<path d="M13.0284 7.16431C12.3594 7.16431 11.8019 6.94812 11.3559 6.51575C10.9099 6.07729 10.6869 5.51094 10.6869 4.81671C10.6869 4.03722 10.8046 3.44043 11.04 3.02632C11.2754 2.60613 11.7524 2.22552 12.4709 1.8845C12.6072 1.81751 12.7868 1.73834 13.0098 1.647C13.239 1.55565 13.4094 1.48257 13.5209 1.42776C13.6385 1.37296 13.7655 1.30293 13.9018 1.21767C14.0381 1.12632 14.1403 1.02584 14.2084 0.916226C14.2766 0.806611 14.3199 0.675681 14.3385 0.523438L14.8217 0.797476C14.7969 0.94363 14.7473 1.08065 14.673 1.20853C14.5987 1.33642 14.5212 1.43994 14.4407 1.51911C14.3664 1.59828 14.2456 1.68658 14.0783 1.78402C13.9173 1.87536 13.7903 1.94235 13.6974 1.98498C13.6107 2.02152 13.4558 2.08546 13.2328 2.1768C13.016 2.26815 12.8704 2.32905 12.7961 2.3595C12.3625 2.54219 12.0435 2.73402 11.8391 2.93498C11.6347 3.12985 11.4891 3.38562 11.4024 3.70229C11.613 3.42825 11.8793 3.22728 12.2015 3.0994C12.5298 2.96543 12.8488 2.89844 13.1585 2.89844C13.7779 2.89844 14.289 3.0994 14.6916 3.50132C15.1004 3.89716 15.3048 4.40565 15.3048 5.0268C15.3048 5.64187 15.088 6.15341 14.6544 6.56142C14.227 6.96335 13.685 7.16431 13.0284 7.16431ZM13.0284 6.56142C13.5116 6.56142 13.908 6.41831 14.2177 6.13209C14.5336 5.83979 14.6916 5.47136 14.6916 5.0268C14.6916 4.57616 14.5429 4.20773 14.2456 3.92152C13.9545 3.62921 13.5642 3.48305 13.0749 3.48305C12.6351 3.48305 12.2355 3.62007 11.8763 3.89411C11.517 4.16206 11.3373 4.52136 11.3373 4.972C11.3373 5.43482 11.4984 5.81543 11.8205 6.11382C12.1488 6.41222 12.5514 6.56142 13.0284 6.56142Z" fill="#343A40"/>
<path d="M20.1307 6.47921C19.6599 6.93594 19.0839 7.16431 18.4025 7.16431C17.7211 7.16431 17.1419 6.93594 16.665 6.47921C16.1942 6.01639 15.9588 5.447 15.9588 4.77104C15.9588 4.09507 16.1942 3.52873 16.665 3.072C17.1419 2.60918 17.7211 2.37777 18.4025 2.37777C19.0839 2.37777 19.6599 2.60918 20.1307 3.072C20.6077 3.52873 20.8462 4.09507 20.8462 4.77104C20.8462 5.447 20.6077 6.01639 20.1307 6.47921ZM17.1017 6.05902C17.4547 6.40613 17.8883 6.57969 18.4025 6.57969C18.9166 6.57969 19.3502 6.40613 19.7033 6.05902C20.0564 5.70581 20.2329 5.27648 20.2329 4.77104C20.2329 4.26559 20.0564 3.8393 19.7033 3.49219C19.3502 3.13898 18.9166 2.96238 18.4025 2.96238C17.8883 2.96238 17.4547 3.13898 17.1017 3.49219C16.7486 3.8393 16.572 4.26559 16.572 4.77104C16.572 5.27648 16.7486 5.70581 17.1017 6.05902Z" fill="#343A40"/>
<path d="M25.0358 2.48738V3.072H23.3912V7.05469H22.778V3.072H21.1334V2.48738H25.0358Z" fill="#343A40"/>
<path d="M25.5948 4.5244V3.93979H28.9397V4.5244H25.5948Z" fill="#343A40"/>
<path d="M34.2316 2.48738V7.05469H33.6183V3.072H30.9424V7.05469H30.3291V2.48738H34.2316Z" fill="#343A40"/>
<path d="M39.4216 6.47921C38.9508 6.93594 38.3747 7.16431 37.6933 7.16431C37.0119 7.16431 36.4328 6.93594 35.9558 6.47921C35.485 6.01639 35.2496 5.447 35.2496 4.77104C35.2496 4.09507 35.485 3.52873 35.9558 3.072C36.4328 2.60918 37.0119 2.37777 37.6933 2.37777C38.3747 2.37777 38.9508 2.60918 39.4216 3.072C39.8985 3.52873 40.137 4.09507 40.137 4.77104C40.137 5.447 39.8985 6.01639 39.4216 6.47921ZM36.3925 6.05902C36.7456 6.40613 37.1792 6.57969 37.6933 6.57969C38.2075 6.57969 38.6411 6.40613 38.9941 6.05902C39.3472 5.70581 39.5238 5.27648 39.5238 4.77104C39.5238 4.26559 39.3472 3.8393 38.9941 3.49219C38.6411 3.13898 38.2075 2.96238 37.6933 2.96238C37.1792 2.96238 36.7456 3.13898 36.3925 3.49219C36.0394 3.8393 35.8629 4.26559 35.8629 4.77104C35.8629 5.27648 36.0394 5.70581 36.3925 6.05902Z" fill="#343A40"/>
<path d="M45.7161 2.48738V7.05469H45.1028V3.40998L43.4768 6.00421H43.4025L41.7765 3.40998V7.05469H41.1632V2.48738H41.8694L43.4396 4.99027L45.0099 2.48738H45.7161Z" fill="#343A40"/>
<path d="M50.909 6.47921C50.4382 6.93594 49.8621 7.16431 49.1807 7.16431C48.4993 7.16431 47.9202 6.93594 47.4432 6.47921C46.9724 6.01639 46.737 5.447 46.737 4.77104C46.737 4.09507 46.9724 3.52873 47.4432 3.072C47.9202 2.60918 48.4993 2.37777 49.1807 2.37777C49.8621 2.37777 50.4382 2.60918 50.909 3.072C51.3859 3.52873 51.6244 4.09507 51.6244 4.77104C51.6244 5.447 51.3859 6.01639 50.909 6.47921ZM47.8799 6.05902C48.233 6.40613 48.6666 6.57969 49.1807 6.57969C49.6949 6.57969 50.1285 6.40613 50.4815 6.05902C50.8346 5.70581 51.0112 5.27648 51.0112 4.77104C51.0112 4.26559 50.8346 3.8393 50.4815 3.49219C50.1285 3.13898 49.6949 2.96238 49.1807 2.96238C48.6666 2.96238 48.233 3.13898 47.8799 3.49219C47.5268 3.8393 47.3503 4.26559 47.3503 4.77104C47.3503 5.27648 47.5268 5.70581 47.8799 6.05902Z" fill="#343A40"/>
<path d="M58.876 6.47008H59.5264V8.27873H58.9131V7.05469H52.6506V2.48738H53.2639V6.47008H55.4567V2.48738H56.0699V6.47008H58.2627V2.48738H58.876V6.47008Z" fill="#343A40"/>
<path d="M63.7433 2.48738H64.3565V7.05469H63.7433V5.06334H61.0673V7.05469H60.4541V2.48738H61.0673V4.47873H63.7433V2.48738Z" fill="#343A40"/>
<path d="M69.0355 2.48738H69.5558V7.05469H68.9425V3.53786L66.1737 7.05469H65.6533V2.48738H66.2666V6.00421L69.0355 2.48738Z" fill="#343A40"/>
<path d="M74.6064 7.05469H73.7887L71.4659 4.85325V7.05469H70.8526V2.48738H71.4659V4.50613L73.6772 2.48738H74.5135L72.1163 4.67969L74.6064 7.05469Z" fill="#343A40"/>
</svg>
