<svg width="1163" height="731" viewBox="0 0 1163 731" fill="none" xmlns="http://www.w3.org/2000/svg">
<path d="M1130.77 1.06036C1128.36 -0.353453 1124.47 -0.353453 1122.06 1.06036C1120.26 2.12072 1119.81 3.67198 1120.73 4.96798L985.953 83.7879V183.285L953.117 202.489V310.704L840.655 376.486L823.133 366.236L909.854 315.515V256.194L909.505 255.998L810.902 198.326V178.199L866.668 145.583C869.071 146.604 872.444 146.486 874.615 145.23C877.018 143.816 877.018 141.538 874.615 140.144C872.211 138.73 868.315 138.73 865.912 140.144C863.741 141.42 863.547 143.384 865.291 144.798L809.526 177.414V199.151L809.874 199.347L908.477 257.019V314.73L842.962 353.06V328.338L873.006 310.763C875.41 311.784 878.782 311.667 880.953 310.41C883.357 308.996 883.357 306.718 880.953 305.324C878.55 303.91 874.654 303.91 872.25 305.324C870.079 306.601 869.885 308.564 871.63 309.978L841.586 327.552V353.885L821.776 365.47L798.341 351.764V308.721L842.535 282.86V253.111L842.186 252.915L749.127 198.483C750.872 197.07 750.678 195.106 748.507 193.829C746.103 192.416 742.207 192.416 739.804 193.829C737.4 195.243 737.4 197.521 739.804 198.915C741.975 200.192 745.347 200.29 747.751 199.269L841.14 253.897V282.036L798.322 307.091V277.421L797.973 277.225L741.044 243.922C742.789 242.508 742.595 240.544 740.424 239.268C738.02 237.854 734.124 237.854 731.721 239.268C729.317 240.682 729.317 242.959 731.721 244.354C733.892 245.63 737.264 245.728 739.668 244.707L796.946 278.206V350.92L780.489 341.298L753.372 357.164L728.813 342.79V307.877L728.464 307.681L663.53 269.704V236.794C664.868 236.715 666.166 236.381 667.194 235.772C669.597 234.359 669.597 232.081 667.194 230.687C664.79 229.273 660.894 229.273 658.491 230.687C656.087 232.101 656.087 234.378 658.491 235.772C659.518 236.381 660.817 236.695 662.154 236.794V270.509L662.503 270.705L727.437 308.682V341.985L621.759 280.17V214.644L679.076 181.125H731.682L731.837 181.027L822.105 128.244C824.509 129.265 827.882 129.148 830.053 127.891C832.456 126.477 832.456 124.199 830.053 122.805C827.649 121.391 823.753 121.391 821.349 122.805C819.178 124.082 818.985 126.045 820.729 127.459L731.314 179.75H681.46L847.284 82.7668C849.688 83.7879 853.061 83.6701 855.232 82.4134C857.635 80.9996 857.635 78.7217 855.232 77.3276C852.828 75.9138 848.932 75.9138 846.528 77.3276C844.357 78.6039 844.164 80.5676 845.908 81.9814L620.383 213.878V281.014L620.732 281.211L752.015 357.989L725.596 373.442L501.447 242.351V164.12L501.098 163.923L424.863 119.349C426.608 117.935 426.414 115.972 424.243 114.695C421.84 113.282 417.943 113.282 415.54 114.695C413.136 116.109 413.136 118.387 415.54 119.781C417.711 121.058 421.084 121.156 423.487 120.135L500.051 164.925V243.156L500.4 243.352L724.2 374.247L699.041 388.955L477.373 259.297H345.178L262.567 210.972V136.708C263.439 136.531 264.253 136.256 264.951 135.863C267.354 134.449 267.354 132.172 264.951 130.777C262.547 129.364 258.651 129.364 256.248 130.777C253.844 132.191 253.844 134.469 256.248 135.863C257.605 136.649 259.427 136.983 261.19 136.884V211.777L261.539 211.973L344.829 260.691H477.024L664.151 370.143H626.508L562.64 332.795H513.445L513.29 332.893L445.061 372.794C442.657 371.773 439.285 371.891 437.114 373.148C434.71 374.562 434.71 376.839 437.114 378.234C439.517 379.647 443.413 379.647 445.817 378.234C447.988 376.957 448.182 374.994 446.437 373.58L513.813 334.17H562.272L626.14 371.518H666.535L697.684 389.74L630.54 429.013L611.447 417.84V388.523L562.892 360.149C564.637 358.735 564.443 356.771 562.272 355.495C559.868 354.081 555.972 354.081 553.569 355.495C551.165 356.909 551.165 359.186 553.569 360.581C555.74 361.857 559.112 361.955 561.516 360.934L610.013 389.308V417.015L558.298 386.756H533.798L533.643 386.854L504.432 403.937C502.028 402.916 498.656 403.034 496.485 404.291C494.081 405.705 494.081 407.983 496.485 409.377C498.888 410.79 502.784 410.79 505.188 409.377C507.359 408.1 507.553 406.137 505.808 404.723L534.166 388.13H557.91L629.106 429.759L616.177 437.319L657.444 461.452L638.119 472.763H608.889L587.974 460.529C589.641 459.135 589.408 457.191 587.276 455.934C584.873 454.52 580.977 454.52 578.573 455.934C576.17 457.348 576.17 459.626 578.573 461.02C580.763 462.296 584.194 462.395 586.617 461.334L608.52 474.137H635.735L586.443 502.963L470.492 435.139H387.046L386.891 435.238L339.906 462.709C337.503 461.688 334.13 461.806 331.959 463.062C329.555 464.476 329.555 466.754 331.959 468.148C334.363 469.562 338.259 469.562 340.662 468.148C342.833 466.872 343.027 464.908 341.282 463.494L387.415 436.514H470.104L559.539 488.825H521.257L483.847 466.95C485.591 465.536 485.397 463.573 483.227 462.296C480.823 460.883 476.927 460.883 474.523 462.296C472.12 463.71 472.12 465.988 474.523 467.382C476.694 468.659 480.067 468.757 482.471 467.736L520.888 490.219H561.923L585.047 503.749L526.18 538.171H338.026L191.895 452.792C193.64 451.379 193.446 449.415 191.275 448.139C188.871 446.725 184.975 446.725 182.572 448.139C180.168 449.552 180.168 451.83 182.572 453.224C184.743 454.501 188.115 454.599 190.519 453.578L337.696 539.663H523.815L500.458 553.33H361.189L361.034 553.428L292.359 593.604C289.955 592.583 286.583 592.701 284.412 593.957C282.008 595.371 282.008 597.649 284.412 599.043C286.815 600.457 290.711 600.457 293.115 599.043C295.286 597.767 295.48 595.803 293.735 594.389L361.577 554.724H500.846L501.001 554.626L658.839 462.316L676.362 472.566L510.421 569.628H389.062L388.907 569.726L242.33 655.458H39.2513L0 632.484V634.094L38.883 656.833H242.699L242.854 656.735L334.847 602.931V634.781L274.216 670.244C271.812 669.223 268.44 669.341 266.269 670.598C263.865 672.012 263.865 674.289 266.269 675.684C268.672 677.097 272.568 677.097 274.972 675.684C277.143 674.407 277.337 672.444 275.592 671.03L336.223 635.567V602.303H335.913L389.45 570.983H510.809L510.964 570.885L677.758 473.332L697.664 484.976L374.04 674.25V708.457H375.416V675.055L699.041 485.781L723.638 500.175L556.709 597.806V615.263L527.11 632.582V672.738L469.716 706.316C467.313 705.295 463.94 705.413 461.769 706.67C460.897 707.18 460.335 707.809 460.102 708.476H472.1C471.926 707.985 471.597 707.534 471.093 707.121L528.487 673.543V633.387L556.709 616.873V681.162L573.359 690.902L543.315 708.496H546.067L574.696 691.746L603.326 708.496H606.078L558.027 680.396V598.651L724.956 501.019L747.344 514.117L629.202 583.216C626.799 582.195 623.426 582.313 621.255 583.57C618.852 584.984 618.852 587.262 621.255 588.656C623.659 590.07 627.555 590.07 629.958 588.656C632.129 587.379 632.323 585.416 630.579 584.002L748.72 514.902L770.333 527.548L629.009 610.197H590.61C590.378 609.529 589.815 608.881 588.924 608.351C586.52 606.937 582.624 606.937 580.221 608.351C577.817 609.765 577.817 612.042 580.221 613.437C582.624 614.85 586.52 614.85 588.924 613.437C589.815 612.906 590.378 612.258 590.61 611.591H629.377L629.532 611.493L771.689 528.353L780.412 533.458L787.118 529.531L820.981 549.324V576.894L793.011 593.251V593.172H749.108L748.953 593.27L700.785 621.448C698.382 620.427 695.009 620.545 692.838 621.802C690.434 623.216 690.434 625.493 692.838 626.888C695.241 628.301 699.138 628.301 701.541 626.888C703.712 625.611 703.906 623.648 702.161 622.234L749.476 594.566H790.743L708.5 642.655C706.077 641.556 702.607 641.634 700.378 642.93C697.974 644.344 697.974 646.622 700.378 648.016C702.781 649.43 706.678 649.43 709.081 648.016C711.194 646.779 711.446 644.874 709.837 643.461L812.414 583.472V596.726L751.395 632.425V657.618L701.715 686.68C699.312 685.659 695.939 685.777 693.768 687.033C691.365 688.447 691.365 690.725 693.768 692.119C696.172 693.533 700.068 693.533 702.471 692.119C704.642 690.843 704.836 688.879 703.092 687.465L752.771 658.404V633.21L813.79 597.512V582.647L822.338 577.64V548.46L788.475 528.667L810.727 515.648L880.391 556.393V602.715L833.076 630.383C830.653 629.283 827.184 629.362 824.955 630.658C822.551 632.071 822.551 634.349 824.955 635.743C827.358 637.157 831.254 637.157 833.658 635.743C835.771 634.506 836.023 632.602 834.414 631.188L880.372 604.306V641.732L844.067 662.979V708.417H845.443V663.784L880.372 643.343V708.398H881.748V555.569L812.084 514.823L837.069 500.214L928.132 553.467V680.318L971.9 705.923V708.496H973.276V705.197L929.508 679.591V552.741L838.445 499.487L856.957 488.648L979.847 560.517V668.732L1087.35 731H1090.85L981.34 667.947V559.731L858.449 487.863L888.455 470.308L1092.93 589.893V643.735L1163 684.716V683.106L1094.31 642.93V589.088L979.304 521.814H1070.25L1163 576.069V574.459L1070.62 520.42H976.92L889.85 469.503L924.74 449.101L999.579 492.87H1119.76L1163 518.161V516.551L1153.52 511.014H1163V509.62H1151.14L1120.12 491.476H999.948L978.994 479.223H1030.09L1030.24 479.125L1055.87 464.142H1162.63L1162.98 464.358V462.748H1058.23L1087.08 445.88C1089.48 446.902 1092.85 446.784 1095.02 445.527C1097.43 444.113 1097.43 441.835 1095.02 440.441C1092.62 439.027 1088.72 439.027 1086.32 440.441C1084.15 441.718 1083.95 443.681 1085.7 445.095L1029.68 477.868H976.571L926.058 448.335L944.724 437.417L932.707 430.387H967.616L1013.24 457.073C1011.5 458.487 1011.69 460.451 1013.86 461.727C1016.27 463.141 1020.16 463.141 1022.57 461.727C1024.97 460.313 1024.97 458.035 1022.57 456.641C1020.4 455.365 1017.02 455.267 1014.62 456.288L967.984 429.013H930.322L904.775 414.07L920.476 404.88H948.33L972.83 390.546H991.109L1032.4 414.698C1030.53 416.112 1030.69 418.134 1032.9 419.43C1035.3 420.844 1039.2 420.844 1041.6 419.43C1044.01 418.017 1044.01 415.739 1041.6 414.345C1039.47 413.108 1036.19 412.97 1033.79 413.913L991.477 389.171H972.462L947.961 403.505H922.86L973.082 374.13H1000.2L1056.72 407.177H1162.96V405.783H1057.09L1000.57 372.735H972.714L972.559 372.834L903.399 413.284L885.256 402.681L963.41 356.967H1018.54L1064.01 383.555H1162.98V382.161H1064.4L1021.31 356.967H1162.98V355.573H963.061L962.906 355.672L883.919 401.876L863.295 389.819L972.268 326.08H1162.98V324.686H1024L1162.98 243.391V241.781L1021.25 324.686H973.276L1076.59 264.265V250.951L1126.04 222.047C1128.44 223.068 1131.81 222.95 1133.98 221.693C1136.39 220.28 1136.39 218.002 1133.98 216.608C1131.58 215.194 1127.68 215.194 1125.28 216.608C1123.11 217.884 1122.92 219.848 1124.66 221.261L1097.74 237.01V200.506L1163 162.215V160.605L1096.36 199.583V237.697L1075.21 250.068V263.381L971.047 324.312L971.396 324.921L861.919 388.955L842.012 377.311L954.474 311.529V203.314L1163 81.3334V79.7232L987.329 182.48V84.593L1121.79 5.94979C1121.89 6.0087 1121.97 6.08724 1122.06 6.14615C1124.47 7.55996 1128.36 7.55996 1130.77 6.14615C1133.17 4.73234 1133.17 2.45453 1130.77 1.06036ZM942.011 437.378L780.47 531.868L618.949 437.398L780.489 342.908L942.011 437.378Z" fill="#889CFF" fill-opacity="0.4"/>
</svg>
