<svg width="160" height="29" fill="none" xmlns="http://www.w3.org/2000/svg"><path d="M6.098 12.718c1.502 0 2.765.497 3.791 1.49 1.026.995 1.539 2.215 1.539 3.662s-.513 2.667-1.539 3.661c-1.026.994-2.29 1.491-3.79 1.491H3.354v5.042H.278V12.718h5.82Zm0 7.476c.654 0 1.197-.22 1.628-.658.431-.453.647-1.008.647-1.666 0-.672-.216-1.228-.647-1.666-.431-.439-.974-.658-1.628-.658H3.355v4.648h2.743ZM21.994 28.064l-3.144-5.327H16.51v5.327H13.43V12.718h6.244c1.442 0 2.669.497 3.68 1.49 1.01.995 1.516 2.193 1.516 3.596 0 .95-.275 1.835-.825 2.653a5.17 5.17 0 0 1-2.185 1.82l3.456 5.787h-3.323ZM16.51 15.546v4.538h3.166c.58 0 1.078-.219 1.494-.657.417-.453.625-.994.625-1.623 0-.628-.208-1.162-.625-1.6-.416-.439-.914-.658-1.494-.658H16.51ZM40.09 26.07c-1.576 1.534-3.494 2.301-5.754 2.301-2.26 0-4.177-.767-5.753-2.302-1.561-1.549-2.342-3.442-2.342-5.678 0-2.236.78-4.121 2.342-5.656 1.576-1.55 3.494-2.324 5.753-2.324 2.26 0 4.178.775 5.754 2.324 1.575 1.535 2.363 3.42 2.363 5.656 0 2.236-.788 4.13-2.364 5.678Zm-9.344-2.061c.966.935 2.163 1.403 3.59 1.403s2.624-.468 3.59-1.403c.967-.95 1.45-2.156 1.45-3.618 0-1.461-.483-2.667-1.45-3.617-.966-.95-2.163-1.425-3.59-1.425s-2.624.475-3.59 1.425c-.966.95-1.45 2.156-1.45 3.617 0 1.462.484 2.668 1.45 3.618ZM54.048 12.718v2.894h-4.215v12.452h-3.077V15.612h-4.192v-2.894h11.484ZM68.008 26.07c-1.576 1.534-3.494 2.301-5.754 2.301-2.26 0-4.177-.767-5.753-2.302-1.56-1.549-2.341-3.442-2.341-5.678 0-2.236.78-4.121 2.341-5.656 1.576-1.55 3.494-2.324 5.753-2.324 2.26 0 4.178.775 5.754 2.324 1.576 1.535 2.364 3.42 2.364 5.656 0 2.236-.788 4.13-2.364 5.678Zm-9.344-2.061c.966.935 2.163 1.403 3.59 1.403 1.428 0 2.624-.468 3.59-1.403.967-.95 1.45-2.156 1.45-3.618 0-1.461-.483-2.667-1.45-3.617-.966-.95-2.162-1.425-3.59-1.425-1.427 0-2.623.475-3.59 1.425-.966.95-1.45 2.156-1.45 3.617 0 1.462.484 2.668 1.45 3.618ZM81.566 12.718h3.077v15.346h-2.341l-6.69-9.383v9.383h-3.078V12.718h2.342l6.69 9.361v-9.36ZM103.438 12.718v2.894h-4.214v12.452h-3.078V15.612h-4.192v-2.894h11.484ZM113.72 28.064l-3.145-5.327h-2.341v5.327h-3.078V12.718h6.244c1.442 0 2.669.497 3.68 1.49 1.011.995 1.516 2.193 1.516 3.596 0 .95-.275 1.835-.825 2.653a5.168 5.168 0 0 1-2.185 1.82l3.456 5.787h-3.322Zm-5.486-12.518v4.538h3.166c.58 0 1.078-.219 1.494-.657.417-.453.625-.994.625-1.623 0-.628-.208-1.162-.625-1.6-.416-.439-.914-.658-1.494-.658h-3.166ZM128.889 28.064l-.937-2.762h-6.221l-.937 2.762h-3.322l5.463-15.346h3.813l5.486 15.346h-3.345Zm-6.177-5.59h4.282l-2.141-6.27-2.141 6.27ZM139.949 12.718c2.141 0 3.925.738 5.352 2.214 1.442 1.476 2.163 3.296 2.163 5.46 0 2.162-.721 3.982-2.163 5.458-1.427 1.476-3.211 2.214-5.352 2.214h-6.199V12.718h6.199Zm0 12.453c1.353 0 2.453-.439 3.3-1.316.848-.892 1.271-2.046 1.271-3.464 0-1.417-.423-2.565-1.271-3.442-.847-.891-1.947-1.337-3.3-1.337h-3.122v9.559h3.122ZM152.724 25.17h6.579v2.894h-9.656V12.718h9.544v2.894h-6.467v3.266h5.91v2.85h-5.91v3.442ZM2.638.66c.582 0 1.069.192 1.459.576.39.384.585.862.585 1.434 0 .573-.195 1.05-.585 1.434-.39.384-.877.576-1.459.576H.966v2.375h-.65V.66h2.322Zm0 3.417c.403 0 .734-.131.994-.393.267-.268.4-.606.4-1.014 0-.408-.133-.743-.4-1.005-.26-.268-.591-.402-.994-.402H.966v2.814h1.672ZM9.224 6.48c-.47.456-1.047.684-1.728.684-.682 0-1.26-.228-1.738-.685a2.302 2.302 0 0 1-.706-1.708c0-.676.236-1.242.706-1.699a2.403 2.403 0 0 1 1.738-.694c.681 0 1.257.231 1.728.694.477.457.715 1.023.715 1.699 0 .676-.238 1.245-.715 1.708Zm-3.029-.421c.353.347.787.52 1.3.52.515 0 .949-.173 1.302-.52.353-.353.53-.783.53-1.288s-.177-.932-.53-1.279a1.768 1.768 0 0 0-1.301-.53c-.514 0-.948.177-1.301.53-.353.347-.53.774-.53 1.279 0 .505.177.935.53 1.288ZM13.028 7.164c-.669 0-1.226-.216-1.672-.648-.446-.439-.67-1.005-.67-1.7 0-.779.119-1.376.354-1.79.235-.42.712-.8 1.43-1.141a9 9 0 0 1 .54-.238c.229-.091.4-.164.51-.22.119-.054.245-.124.382-.21a1.02 1.02 0 0 0 .306-.3.953.953 0 0 0 .13-.394l.484.274a1.217 1.217 0 0 1-.149.412 1.468 1.468 0 0 1-.232.31c-.075.08-.195.168-.363.265a5.357 5.357 0 0 1-.38.201l-.465.192-.437.183c-.433.182-.752.374-.957.575-.204.195-.35.45-.437.767a1.85 1.85 0 0 1 .8-.603c.328-.134.647-.2.957-.2.619 0 1.13.2 1.533.602.408.396.613.905.613 1.526 0 .615-.217 1.126-.65 1.534-.428.402-.97.603-1.627.603Zm0-.603c.484 0 .88-.143 1.19-.429.316-.292.474-.66.474-1.105 0-.45-.15-.82-.446-1.105-.292-.293-.682-.439-1.171-.439-.44 0-.84.137-1.199.411-.359.268-.539.627-.539 1.078 0 .463.161.843.483 1.142.329.298.731.447 1.208.447ZM20.13 6.48c-.47.456-1.046.684-1.727.684-.682 0-1.261-.228-1.738-.685a2.302 2.302 0 0 1-.706-1.708c0-.676.235-1.242.706-1.699a2.402 2.402 0 0 1 1.738-.694c.68 0 1.257.231 1.728.694.477.457.715 1.023.715 1.699 0 .676-.238 1.245-.715 1.708Zm-3.028-.421c.353.347.786.52 1.3.52.515 0 .948-.173 1.301-.52.353-.353.53-.783.53-1.288s-.177-.932-.53-1.279a1.768 1.768 0 0 0-1.3-.53c-.515 0-.948.177-1.301.53-.353.347-.53.774-.53 1.279 0 .505.177.935.53 1.288ZM25.036 2.487v.585H23.39v3.983h-.613V3.072h-1.645v-.585h3.903ZM25.595 4.524V3.94h3.345v.584h-3.345ZM34.232 2.487v4.568h-.614V3.072h-2.676v3.983h-.613V2.487h3.903ZM39.422 6.48c-.471.456-1.047.684-1.729.684-.681 0-1.26-.228-1.737-.685a2.302 2.302 0 0 1-.706-1.708c0-.676.235-1.242.706-1.699a2.403 2.403 0 0 1 1.737-.694c.682 0 1.258.231 1.729.694.477.457.715 1.023.715 1.699 0 .676-.239 1.245-.715 1.708Zm-3.03-.421c.354.347.787.52 1.301.52.515 0 .948-.173 1.301-.52.353-.353.53-.783.53-1.288s-.177-.932-.53-1.279a1.768 1.768 0 0 0-1.3-.53c-.515 0-.948.177-1.302.53-.353.347-.53.774-.53 1.279 0 .505.177.935.53 1.288ZM45.716 2.487v4.568h-.613V3.41l-1.626 2.594h-.074L41.776 3.41v3.645h-.613V2.487h.706l1.57 2.503 1.57-2.503h.707ZM50.909 6.48c-.47.456-1.047.684-1.728.684-.682 0-1.26-.228-1.738-.685a2.302 2.302 0 0 1-.706-1.708c0-.676.235-1.242.706-1.699a2.403 2.403 0 0 1 1.738-.694c.681 0 1.257.231 1.728.694.477.457.715 1.023.715 1.699 0 .676-.238 1.245-.715 1.708Zm-3.03-.421c.354.347.788.52 1.302.52s.948-.173 1.3-.52c.354-.353.53-.783.53-1.288s-.176-.932-.53-1.279a1.768 1.768 0 0 0-1.3-.53c-.514 0-.948.177-1.301.53-.353.347-.53.774-.53 1.279 0 .505.177.935.53 1.288ZM58.876 6.47h.65V8.28h-.613V7.055h-6.262V2.487h.613V6.47h2.193V2.487h.613V6.47h2.193V2.487h.613V6.47ZM63.743 2.487h.613v4.568h-.613V5.063h-2.676v1.992h-.613V2.487h.613V4.48h2.676V2.487ZM69.035 2.487h.52v4.568h-.613V3.538l-2.768 3.517h-.52V2.487h.613v3.517l2.769-3.517ZM74.606 7.055h-.817l-2.323-2.202v2.202h-.613V2.487h.613v2.02l2.211-2.02h.836L72.116 4.68l2.49 2.375Z" fill="#343A40"/></svg>