<svg width="204" height="86" fill="none" xmlns="http://www.w3.org/2000/svg"><g clip-path="url(#a)"><path d="m143.788 17.898-4.344 16.817-29.784 3.835 34.128-20.652Z" fill="#BABABA"/><path d="m151.851 85.731 7.401-30.543-9.6-3.942 2.199 34.485Z" fill="#5B5B5B"/><path d="m139.445 34.7-7.813 15.981-21.882-12.075 29.695-3.907Z" fill="#D5D6D7"/><path d="m151.851 85.732-2.199-34.486-18.11-.621 20.309 35.107Z" fill="#BCBABA"/><path d="m139.444 34.7 10.298 16.531-18.11-.603 7.812-15.929Z" fill="#5B5B5B"/><path d="m143.789 17.898 24.653 3.073-28.998 13.744 4.345-16.817ZM195.401 10.246l-15.5 17.9 1.09-16.55 14.41-1.35ZM204 0l-8.599 10.246 6.722.817L204 0Z" fill="#ACA9A9"/><path d="m187.052 19.532 15.071-8.489-6.722-.816-8.349 9.305Z" fill="#AFAFAF"/><path d="m159.252 55.19.733-20.545-10.333 16.603 9.6 3.942Z" fill="#BCBABA"/><path d="m159.986 34.645-10.334 16.603-10.208-16.532 20.542-.072Z" fill="#5B5B5B"/><path d="m168.442 20.969-8.456 13.673-20.542.071 28.998-13.744Z" fill="#BABABA"/><path d="m159.986 34.645-.733 20.545 18.914 19.214-18.181-39.76Z" fill="#D2D2D2"/><path d="m188.053 63.66-9.993-24.594.107 35.356 9.886-10.761ZM179.901 28.145l-1.841 10.92-18.074-4.421 19.915-6.5Z" fill="#5B5B5B"/><path d="m189.054 42.952-10.994-3.889 1.787-10.903 9.207 14.792Z" fill="#D2D2D2"/><path d="m193.077 62.986-11.978-19.072h6.847l5.131 19.072Z" fill="#ACA9A9"/><path d="m170.694 16.903 9.207 11.24 1.091-16.55-10.298 5.31Z" fill="#BABABA"/><path d="m178.06 39.066-18.074-4.422 18.181 39.76-.107-35.338Z" fill="#5B5B5B"/><path d="m188.053 63.66 3.987 2.22-13.837 8.523 9.85-10.743Z" fill="#BCBABA"/><path d="M193.077 62.755 178.06 39.066l9.993 24.612 5.024-.923Z" fill="#BABABA"/><path d="M170.694 16.902 159.968 34.66l19.915-6.5-9.189-11.258Z" fill="#ACA9A9"/><path d="m28.05 69.131 2.896 1.474 2.914-1.474v16.604h-5.81V69.13Zm-.447-5.611c.06-.823.444-1.59 1.07-2.132a3.16 3.16 0 0 1 2.273-.763 2.968 2.968 0 0 1 2.375.668 2.93 2.93 0 0 1 1.032 2.227 2.913 2.913 0 0 1-1.032 2.227 2.956 2.956 0 0 1-2.375.667 3.13 3.13 0 0 1-2.264-.732 3.092 3.092 0 0 1-1.08-2.109v-.053ZM14.41 60.375v9.713H6.328v-9.713H0v25.358h6.329v-9.75h8.08v9.75h6.329V60.375h-6.329ZM47.215 85.734h-5.846V73.126h-2.27v-5.451h2.27v-6.073h5.846v6.073h2.27v5.451h-2.27v12.608Z" fill="#A4A4A4"/><path d="M61.749 79.908h5.166c2.02 0 2.646-1.225 2.646-2.273 0-1.047-.661-2.237-2.646-2.237H61.75v4.51Zm0-9.784h4.72a1.998 1.998 0 0 0 1.475-.37 1.977 1.977 0 0 0 .777-1.3c.009-.094.009-.189 0-.283 0-.675-.375-1.954-2.27-1.954h-4.702v3.907Zm4.022-9.749c7.705 0 8.939 4.546 8.939 6.854a5.511 5.511 0 0 1-.786 3.154 5.565 5.565 0 0 1-2.432 2.174 5.612 5.612 0 0 1 3.001 2.166 5.548 5.548 0 0 1 .986 3.552c0 3.977-2.306 7.405-9.94 7.405H55.42V60.375h10.351ZM91.801 85.733h-6.329V66.199h-6.668v-5.824H98.47v5.771h-6.668v19.587ZM124.821 64.388l-4.094 3.676a8.508 8.508 0 0 0-5.739-2.095 6.802 6.802 0 0 0-2.603.45 6.754 6.754 0 0 0-3.745 3.557 6.684 6.684 0 0 0-.571 2.563 2.788 2.788 0 0 0 0 .532 6.678 6.678 0 0 0 1.692 4.858 6.754 6.754 0 0 0 2.102 1.583c.799.385 1.667.61 2.553.662h.572a8.455 8.455 0 0 0 5.739-2.042l4.094 3.676a13.531 13.531 0 0 1-4.482 3.102 13.614 13.614 0 0 1-5.351 1.089 13.027 13.027 0 0 1-9.178-3.776 12.848 12.848 0 0 1-3.801-9.116c0-3.42 1.367-6.698 3.801-9.116a13.027 13.027 0 0 1 9.178-3.776c1.839-.01 3.661.356 5.352 1.074a13.456 13.456 0 0 1 4.481 3.099Z" fill="#5B5B5B"/></g><defs><clipPath id="a"><path fill="#fff" d="M0 0h204v86H0z"/></clipPath></defs></svg>