<svg width="82" height="82" fill="none" xmlns="http://www.w3.org/2000/svg"><path d="M41 0C18.356 0 0 18.356 0 41s18.356 41 41 41 41-18.356 41-41C81.976 18.366 63.634.024 41 0Zm0 76.143C21.59 76.143 5.857 60.409 5.857 41S21.591 5.857 41 5.857 76.143 21.591 76.143 41C76.122 60.4 60.4 76.122 41 76.143Z" fill="#28A745"/><path d="M63.184 24.287a2.928 2.928 0 0 0-4.07 0L31.9 51.502l-9.644-9.644A2.929 2.929 0 1 0 18.115 46l11.714 11.715a2.928 2.928 0 0 0 4.141 0l29.286-29.286a2.928 2.928 0 0 0-.072-4.141Z" fill="#28A745"/></svg>