<svg width="40" height="40" fill="none" xmlns="http://www.w3.org/2000/svg"><g clip-path="url(#a)" fill="#35F"><path d="M24.667 33.235h-1.9v-3.8h7.8v5.9c0 1.16.94 2.1 2.1 2.1H38a2.1 2.1 0 0 0 2.1-2.1V22a2.1 2.1 0 0 0-2.1-2.1h-.567v-13.9A3.437 3.437 0 0 0 34 2.568H6a3.437 3.437 0 0 0-3.433 3.433v9.9H2a2.1 2.1 0 0 0-2.1 2.1v17.334c0 1.16.94 2.1 2.1 2.1h25.333a.767.767 0 0 0 .767-.767 3.437 3.437 0 0 0-3.433-3.433Zm-8.567 2.1v-.567h8.566c.757 0 1.437.45 1.74 1.133h-10.39c.054-.183.082-.374.084-.565v-.001ZM4.1 15.9v-9.9c0-1.05.85-1.9 1.9-1.9h28c1.05 0 1.9.851 1.9 1.9v13.9h-3.233a2.1 2.1 0 0 0-2.1 2.1v.567H16.1v-4.567a2.077 2.077 0 0 0-.203-.88l2.08-2.08c.428-.413.884-.86 1.334-1.306a263.655 263.655 0 0 0 2.96-2.984l.175-.178.023-.024.006-.006.002-.002.007-.008.002-.002c.007-.008-.011-.144-.141-.14l-.004.003-.004.004-.01.01-4.49 4.49c-.368.354-.715.683-1.02.964-.332.304-.612.55-.817.711a2.228 2.228 0 0 1-.274.188c-.148-.16-.174-.286-.188-.352v-.007c-.004-.015-.01-.041-.02-.062a.114.114 0 0 0-.139-.063.16.16 0 0 0-.044.023.402.402 0 0 0-.054.045l-.388-.243a.096.096 0 0 0-.019-.012l-.052-.033-.011.012A2.075 2.075 0 0 0 14 15.9H4.1Zm10.83.3V16.2Zm.77.57h.002-.003Zm6.782-6.236c.001 0 0 0 0 0Zm-7.915 24.8A.567.567 0 0 1 14 35.9H2a.567.567 0 0 1-.567-.566v-.567h13.134v.567Zm0-2.1H1.433V18c0-.313.254-.566.567-.566h12c.313 0 .567.253.567.566v15.234Zm1.533 0v-3.8h1.133v3.8H16.1Zm2.667 0v-3.8h2.466v3.8h-2.466Zm11.8-5.334H16.1v-3.8h14.467v3.8Zm8 7.434A.567.567 0 0 1 38 35.9h-5.333a.567.567 0 0 1-.567-.566v-.567h6.467v.567Zm0-2.1H32.1V22c0-.313.254-.566.567-.566H38c.313 0 .567.253.567.566v11.234Z" stroke="#35F" stroke-width=".2"/><path d="M20.013 25.332h-.007a.667.667 0 0 0 .007 1.333.667.667 0 0 0 0-1.333ZM21.333 5.332h-2.666a.667.667 0 0 0 0 1.333h2.666a.667.667 0 0 0 0-1.333Z"/></g><defs><clipPath id="a"><path fill="#fff" d="M0 0h40v40H0z"/></clipPath></defs></svg>