<svg width="40" height="40" fill="none" xmlns="http://www.w3.org/2000/svg"><path d="M9.375 20.625h1.875v1.25H9.375v-1.25ZM13.75 23.75h1.875V25H13.75v-1.25ZM9.375 23.75H12.5V25H9.375v-1.25ZM4.375 23.75h3.75V25h-3.75v-1.25ZM8.125 26.875h7.5v1.25h-7.5v-1.25ZM4.375 26.875h2.5v1.25h-2.5v-1.25ZM11.875 30h3.75v1.25h-3.75V30ZM4.375 30h6.25v1.25h-6.25V30ZM8.125 33.125h3.75v1.25h-3.75v-1.25ZM4.375 33.125h2.5v1.25h-2.5v-1.25Z" fill="#35F"/><path d="M37.5 18.75a.625.625 0 0 0-.625-.625h-3.75a.625.625 0 0 0-.625.625v3.125h-3.125a.625.625 0 0 0-.625.625v3.125h-3.125a.625.625 0 0 0-.625.625v3.125h-3.125a.625.625 0 0 0-.625.625v3.75h-4.483a1.876 1.876 0 1 0 0 1.25h.733v1.875a.625.625 0 0 1-.625.625H3.125a.626.626 0 0 1-.625-.625V22.5h3.125A1.877 1.877 0 0 0 7.5 20.625V17.5h9.375a.626.626 0 0 1 .625.625v.625h1.25v-.625a1.877 1.877 0 0 0-1.875-1.875H7.393a1.862 1.862 0 0 0-1.326.55l-4.268 4.267a1.863 1.863 0 0 0-.549 1.326v14.482a1.877 1.877 0 0 0 1.875 1.875h13.75a1.877 1.877 0 0 0 1.875-1.875V35h20v-1.25H37.5v-15Zm-31.25-.366v2.241a.626.626 0 0 1-.625.625H3.384l2.866-2.866ZM15 35a.625.625 0 1 1 0-1.25.625.625 0 0 1 0 1.25Zm7.5-4.375H25v3.125h-2.5v-3.125Zm3.75-3.75h2.5v6.875h-2.5v-6.875Zm3.75-3.75h2.5V33.75H30V23.125Zm3.75 10.625V19.375h2.5V33.75h-2.5ZM3.125 16.876a1.875 1.875 0 0 0 1.692-2.683l1.875-1.875a1.874 1.874 0 0 0 2.575-1.067h2.716a1.875 1.875 0 0 0 3.616-.315l3.53-3.026a1.875 1.875 0 1 0-.85-.917l-2.99 2.563a1.873 1.873 0 0 0-3.306.445H9.267a1.875 1.875 0 1 0-3.459 1.433l-1.875 1.875a1.875 1.875 0 1 0-.808 3.567ZM20 5.626a.625.625 0 1 1 0 1.25.625.625 0 0 1 0-1.25ZM13.75 10a.625.625 0 1 1 0 1.25.625.625 0 0 1 0-1.25ZM7.5 10a.625.625 0 1 1 0 1.25.625.625 0 0 1 0-1.25Zm-4.375 4.375a.625.625 0 1 1 0 1.25.625.625 0 0 1 0-1.25Z" fill="#35F"/><path d="m25.747 15.871-4.13 4.131h-5.475a1.875 1.875 0 1 0 0 1.25H17.5v11.25h1.25v-11.25h3.125a.625.625 0 0 0 .442-.183l4.51-4.51a8.147 8.147 0 1 0-1.08-.688Zm-11.372 5.381a.625.625 0 1 1 0-1.25.625.625 0 0 1 0 1.25Zm21.263-7.175-3.621-4.075h5.454a6.852 6.852 0 0 1-1.833 4.074Zm1.833-5.325H31.25V2.531a6.887 6.887 0 0 1 6.221 6.221ZM30 2.531v6.846c0 .153.056.301.158.415l4.547 5.116A6.875 6.875 0 1 1 30 2.53Z" fill="#35F"/></svg>