<svg width="40" height="41" fill="none" xmlns="http://www.w3.org/2000/svg"><path d="M39.982 2.362a1.99 1.99 0 0 0-1.999-1.92H2C.895.441 0 1.327 0 2.421v35.635a1.99 1.99 0 0 0 2 1.98h35.983c1.104 0 2-.887 2-1.98 0-43.931.04-34.316 0-35.695Zm-1.332 0-3.106 10.413-4.225-1.57V1.76h6.664a.664.664 0 0 1 .667.607v-.006Zm-8.663 9.18-4.911 13.37-4.419-4.924V1.761h9.33v9.78Zm-10.662 6.816c-3.998-4.923-4.092-5.075-4.178-5.167a.67.67 0 0 0-.487-.211h-2.665a.663.663 0 0 0-.667.66c0 .364.299.66.667.66h1.552l-3.551 6.599V1.76h9.329v16.597Zm-9.33 5.345 4.778-8.869 4.552 5.636v18.247h-9.33V23.703Zm10.662-1.729c4.485 4.996 4.185 4.7 4.378 4.791.194.093.107.073 2.953.073a.663.663 0 0 0 .666-.66.663.663 0 0 0-.666-.66h-1.713l3.712-10.11v23.309h-9.33V21.975ZM2 1.761h6.664V12.98H7.33a.663.663 0 0 0-.666.66c0 .364.298.66.666.66h1.333v9.054L4.87 29.616l-3.538 1.498V2.421c0-.364.298-.66.666-.66Zm-.666 36.296v-5.504l4.258-1.808c.28-.119.086.099 3.072-4.824v12.796H1.999a.663.663 0 0 1-.666-.66Zm36.65.66H31.32V26.838h1.333a.663.663 0 0 0 .666-.66.663.663 0 0 0-.666-.66H31.32V12.61l4.432 1.65a.672.672 0 0 0 .55-.016.661.661 0 0 0 .35-.42l1.998-6.823v31.056c0 .364-.298.66-.666.66Z" fill="#35F"/><path d="M25.795 28.352a.67.67 0 0 0-.946 0l-2 1.98a.659.659 0 0 0 .3 1.108.673.673 0 0 0 .647-.172l.86-.858v4.35c0 .364.298.66.666.66a.663.663 0 0 0 .666-.66v-4.35l.86.858a.674.674 0 0 0 .946 0 .658.658 0 0 0 0-.937l-1.999-1.98ZM14.187 11.466a.67.67 0 0 0 .946 0l2-1.98a.658.658 0 0 0-.3-1.108.674.674 0 0 0-.647.171l-.86.858V5.058a.663.663 0 0 0-.666-.66.663.663 0 0 0-.666.66v4.35l-.86-.859a.674.674 0 0 0-.946 0 .658.658 0 0 0 0 .937l1.999 1.98ZM36.65 25.516h-1.332a.663.663 0 0 0-.667.658c0 .364.299.66.667.66h1.332a.663.663 0 0 0 .667-.66.663.663 0 0 0-.667-.658ZM3.332 14.298h1.333a.663.663 0 0 0 .666-.659.663.663 0 0 0-.666-.659H3.332a.663.663 0 0 0-.666.66c0 .363.298.658.666.658Z" fill="#35F"/></svg>