<svg width="82" height="82" viewBox="0 0 82 82" fill="none" xmlns="http://www.w3.org/2000/svg">
<path d="M40.9999 0C18.3563 0 0 18.3563 0 40.9999C0 63.6435 18.3563 81.9998 40.9999 81.9998C63.6435 81.9998 81.9998 63.6435 81.9998 40.9999C81.9758 18.3664 63.6336 0.024195 40.9999 0ZM40.9999 76.1428C21.591 76.1428 5.85708 60.4088 5.85708 40.9999C5.85708 21.591 21.591 5.85708 40.9999 5.85708C60.4088 5.85708 76.1428 21.591 76.1428 40.9999C76.1218 60.4002 60.4002 76.1218 40.9999 76.1428Z" fill="#28A745"/>
<path d="M63.1837 24.287C62.0488 23.1908 60.2496 23.1908 59.1148 24.287L31.8995 51.502L22.2557 41.8582C21.1321 40.6948 19.278 40.6627 18.1147 41.7863C16.9513 42.9099 16.9192 44.764 18.0428 45.9272C18.0663 45.9516 18.0904 45.9756 18.1147 45.9991L29.8291 57.7135C30.9726 58.8568 32.8265 58.8568 33.97 57.7135L63.2558 28.4277C64.3794 27.2645 64.3471 25.4106 63.1837 24.287Z" fill="#28A745"/>
</svg>
