<svg width="40" height="41" fill="none" xmlns="http://www.w3.org/2000/svg"><path d="m1.032 33.676-.222-.001a.83.83 0 0 1-.81-.848c.014-.456.384-.782.857-.802.277-.003 28.583.495 35.003-24.126a.834.834 0 0 1 1.613.413C31.03 33.028 3.78 33.676 1.032 33.676Z" fill="#35F"/><path d="M39.168 13.21a.834.834 0 0 1-.723-.412L36.36 9.226l-3.608 2.063a.84.84 0 0 1-1.138-.302.82.82 0 0 1 .305-1.127l4.33-2.475a.836.836 0 0 1 1.138.302l2.5 4.286a.82.82 0 0 1-.305 1.127.82.82 0 0 1-.415.11ZM35.835 40.27a.83.83 0 0 1-.834-.824V18a.83.83 0 0 1 .834-.825c.46 0 .833.37.833.825v21.445a.83.83 0 0 1-.833.825ZM25.835 40.274a.83.83 0 0 1-.834-.825v-9.898a.83.83 0 0 1 .834-.824c.46 0 .833.37.833.824v9.898a.83.83 0 0 1-.833.825ZM15.834 40.275a.83.83 0 0 1-.833-.825V34.5a.83.83 0 0 1 .833-.824c.46 0 .834.37.834.825v4.95a.83.83 0 0 1-.834.824ZM5.834 40.268A.829.829 0 0 1 5 39.444v-2.472c0-.455.374-.824.834-.824.46 0 .833.37.833.824v2.472a.829.829 0 0 1-.833.824ZM12.097 20.208a.842.842 0 0 1-.59-.24l-5.993-5.935a.819.819 0 0 1-.03-1.134l4.91-5.396C13.883 3.515 19.416.767 24.153.68c.197-.027.445.084.605.24.16.16.247.377.243.6-.088 4.688-2.865 10.164-6.907 13.627l-5.44 4.85a.826.826 0 0 1-.557.211Zm-4.845-6.787 4.877 4.827 4.864-4.337c3.46-2.964 5.903-7.492 6.29-11.53-4.08.382-8.654 2.8-11.639 6.214L7.252 13.42Z" fill="#35F"/><path d="M14.34 24.122a.833.833 0 0 1-.812-.633l-1.177-4.867a.827.827 0 0 1 .616-.995.835.835 0 0 1 1.005.61l.782 3.233c1.449-2.242 1.737-5.111 1.767-6.789.008-.455.405-.812.848-.81.46.007.827.384.819.838-.07 3.903-1.227 7.16-3.259 9.17a.84.84 0 0 1-.588.243ZM7.069 13.224a.787.787 0 0 1-.195-.023l-4.917-1.166a.822.822 0 0 1-.397-1.384c2.032-2.012 5.322-3.157 9.267-3.226.462-.041.84.355.847.81a.83.83 0 0 1-.818.84c-1.697.03-4.594.315-6.859 1.749l3.265.773a.826.826 0 0 1 .617.995.834.834 0 0 1-.81.632ZM.834 25.425a.848.848 0 0 1-.59-.24.818.818 0 0 1-.209-.82c.275-.911 1.705-5.507 2.825-6.616a3.49 3.49 0 0 1 4.897 0 3.406 3.406 0 0 1 0 4.847c-1.118 1.108-5.763 2.522-6.683 2.794a.861.861 0 0 1-.24.035Zm4.475-7.03a1.8 1.8 0 0 0-1.27.52c-.474.469-1.287 2.534-1.924 4.417 1.902-.63 3.99-1.436 4.462-1.903.7-.692.7-1.82 0-2.512a1.794 1.794 0 0 0-1.268-.521Z" fill="#35F"/></svg>