<svg width="1163" height="731" fill="none" xmlns="http://www.w3.org/2000/svg"><path d="M1130.77 1.06c-2.41-1.413-6.3-1.413-8.71 0-1.8 1.06-2.25 2.612-1.33 3.908l-134.777 78.82v99.497l-32.836 19.204v108.215l-112.462 65.782-17.522-10.25 86.721-50.721v-59.321l-.349-.196-98.603-57.672v-20.127l55.766-32.616c2.403 1.021 5.776.903 7.947-.353 2.403-1.414 2.403-3.692 0-5.086-2.404-1.414-6.3-1.414-8.703 0-2.171 1.276-2.365 3.24-.621 4.654l-55.765 32.616v21.737l.348.196 98.603 57.672v57.711l-65.515 38.33v-24.722l30.044-17.575c2.404 1.021 5.776.904 7.947-.353 2.404-1.414 2.404-3.692 0-5.086-2.403-1.414-6.299-1.414-8.703 0-2.171 1.277-2.365 3.24-.62 4.654l-30.044 17.574v26.333l-19.81 11.585-23.435-13.706v-43.043l44.194-25.861v-29.749l-.349-.196-93.059-54.432c1.745-1.413 1.551-3.377-.62-4.654-2.404-1.413-6.3-1.413-8.703 0-2.404 1.414-2.404 3.692 0 5.086 2.171 1.277 5.543 1.375 7.947.354l93.389 54.628v28.139l-42.818 25.055v-29.67l-.349-.196-56.929-33.303c1.745-1.414 1.551-3.378-.62-4.654-2.404-1.414-6.3-1.414-8.703 0-2.404 1.414-2.404 3.691 0 5.086 2.171 1.276 5.543 1.374 7.947.353l57.278 33.499v72.714l-16.457-9.622-27.117 15.866-24.559-14.374v-34.913l-.349-.196-64.934-37.977v-32.91c1.338-.079 2.636-.413 3.664-1.022 2.403-1.413 2.403-3.691 0-5.085-2.404-1.414-6.3-1.414-8.703 0-2.404 1.414-2.404 3.691 0 5.085 1.027.609 2.326.923 3.663 1.022v33.715l.349.196 64.934 37.977v33.303L621.759 280.17v-65.526l57.317-33.519h52.606l.155-.098 90.268-52.783c2.404 1.021 5.777.904 7.948-.353 2.403-1.414 2.403-3.692 0-5.086-2.404-1.414-6.3-1.414-8.704 0-2.171 1.277-2.364 3.24-.62 4.654l-89.415 52.291H681.46l165.824-96.983c2.404 1.02 5.777.903 7.948-.354 2.403-1.413 2.403-3.691 0-5.085-2.404-1.414-6.3-1.414-8.704 0-2.171 1.276-2.364 3.24-.62 4.653L620.383 213.878v67.136l.349.197 131.283 76.778-26.419 15.453-224.149-131.091V164.12l-.349-.197-76.235-44.574c1.745-1.414 1.551-3.377-.62-4.654-2.403-1.413-6.3-1.413-8.703 0-2.404 1.414-2.404 3.692 0 5.086 2.171 1.277 5.544 1.375 7.947.354l76.564 44.79v78.231l.349.196 223.8 130.895-25.159 14.708-221.668-129.658H345.178l-82.611-48.325v-74.264c.872-.177 1.686-.452 2.384-.845 2.403-1.414 2.403-3.691 0-5.086-2.404-1.413-6.3-1.413-8.703 0-2.404 1.414-2.404 3.692 0 5.086 1.357.786 3.179 1.12 4.942 1.021v74.893l.349.196 83.29 48.718h132.195l187.127 109.452h-37.643l-63.868-37.348h-49.195l-.155.098-68.229 39.901c-2.404-1.021-5.776-.903-7.947.354-2.404 1.414-2.404 3.691 0 5.086 2.403 1.413 6.299 1.413 8.703 0 2.171-1.277 2.365-3.24.62-4.654l67.376-39.41h48.459l63.868 37.348h40.395l31.149 18.222-67.144 39.273-19.093-11.173v-29.317l-48.555-28.374c1.745-1.414 1.551-3.378-.62-4.654-2.404-1.414-6.3-1.414-8.703 0-2.404 1.414-2.404 3.691 0 5.086 2.171 1.276 5.543 1.374 7.947.353l48.497 28.374v27.707l-51.715-30.259h-24.5l-.155.098-29.211 17.083c-2.404-1.021-5.776-.903-7.947.354-2.404 1.414-2.404 3.692 0 5.086 2.403 1.413 6.299 1.413 8.703 0 2.171-1.277 2.365-3.24.62-4.654l28.358-16.593h23.744l71.196 41.629-12.929 7.56 41.267 24.133-19.325 11.311h-29.23l-20.915-12.234c1.667-1.394 1.434-3.338-.698-4.595-2.403-1.414-6.299-1.414-8.703 0-2.403 1.414-2.403 3.692 0 5.086 2.19 1.276 5.621 1.375 8.044.314l21.903 12.803h27.215l-49.292 28.826-115.951-67.824h-83.446l-.155.099-46.985 27.471c-2.403-1.021-5.776-.903-7.947.353-2.404 1.414-2.404 3.692 0 5.086 2.404 1.414 6.3 1.414 8.703 0 2.171-1.276 2.365-3.24.62-4.654l46.133-26.98h82.689l89.435 52.311h-38.282l-37.41-21.875c1.744-1.414 1.55-3.377-.62-4.654-2.404-1.413-6.3-1.413-8.704 0-2.403 1.414-2.403 3.692 0 5.086 2.171 1.277 5.544 1.375 7.948.354l38.417 22.483h41.035l23.124 13.53-58.867 34.422H338.026l-146.131-85.379c1.745-1.413 1.551-3.377-.62-4.653-2.404-1.414-6.3-1.414-8.703 0-2.404 1.413-2.404 3.691 0 5.085 2.171 1.277 5.543 1.375 7.947.354l147.177 86.085h186.119l-23.357 13.667H361.189l-.155.098-68.675 40.176c-2.404-1.021-5.776-.903-7.947.353-2.404 1.414-2.404 3.692 0 5.086 2.403 1.414 6.299 1.414 8.703 0 2.171-1.276 2.365-3.24.62-4.654l67.842-39.665h139.269l.155-.098 157.838-92.31 17.523 10.25-165.941 97.062H389.062l-.155.098-146.577 85.732H39.251L0 632.484v1.61l38.883 22.739h203.816l.155-.098 91.993-53.804v31.85l-60.631 35.463c-2.404-1.021-5.776-.903-7.947.354-2.404 1.414-2.404 3.691 0 5.086 2.403 1.413 6.299 1.413 8.703 0 2.171-1.277 2.365-3.24.62-4.654l60.631-35.463v-33.264h-.31l53.537-31.32h121.359l.155-.098 166.794-97.553 19.906 11.644L374.04 674.25v34.207h1.376v-33.402l323.625-189.274 24.597 14.394-166.929 97.631v17.457l-29.599 17.319v40.156l-57.394 33.578c-2.403-1.021-5.776-.903-7.947.354-.872.51-1.434 1.139-1.667 1.806H472.1c-.174-.491-.503-.942-1.007-1.355l57.394-33.578v-40.156l28.222-16.514v64.289l16.65 9.74-30.044 17.594h2.752l28.629-16.75 28.63 16.75h2.752l-48.051-28.1v-81.745l166.929-97.632 22.388 13.098-118.142 69.099c-2.403-1.021-5.776-.903-7.947.354-2.403 1.414-2.403 3.692 0 5.086 2.404 1.414 6.3 1.414 8.703 0 2.171-1.277 2.365-3.24.621-4.654l118.141-69.1 21.613 12.646-141.324 82.649H590.61c-.232-.668-.795-1.316-1.686-1.846-2.404-1.414-6.3-1.414-8.703 0-2.404 1.414-2.404 3.691 0 5.086 2.403 1.413 6.299 1.413 8.703 0 .891-.531 1.454-1.179 1.686-1.846h38.767l.155-.098 142.157-83.14 8.723 5.105 6.706-3.927 33.863 19.793v27.57l-27.97 16.357v-.079h-43.903l-.155.098-48.168 28.178c-2.403-1.021-5.776-.903-7.947.354-2.404 1.414-2.404 3.691 0 5.086 2.403 1.413 6.3 1.413 8.703 0 2.171-1.277 2.365-3.24.62-4.654l47.315-27.668h41.267L708.5 642.655c-2.423-1.099-5.893-1.021-8.122.275-2.404 1.414-2.404 3.692 0 5.086 2.403 1.414 6.3 1.414 8.703 0 2.113-1.237 2.365-3.142.756-4.555l102.577-59.989v13.254l-61.019 35.699v25.193l-49.68 29.062c-2.403-1.021-5.776-.903-7.947.353-2.403 1.414-2.403 3.692 0 5.086 2.404 1.414 6.3 1.414 8.703 0 2.171-1.276 2.365-3.24.621-4.654l49.679-29.061V633.21l61.019-35.698v-14.865l8.548-5.007v-29.18l-33.863-19.793 22.252-13.019 69.664 40.745v46.322l-47.315 27.668c-2.423-1.1-5.892-1.021-8.121.275-2.404 1.413-2.404 3.691 0 5.085 2.403 1.414 6.299 1.414 8.703 0 2.113-1.237 2.365-3.141.756-4.555l45.958-26.882v37.426l-36.305 21.247v45.438h1.376v-44.633l34.929-20.441v65.055h1.376V555.569l-69.664-40.746 24.985-14.609 91.063 53.253v126.851l43.768 25.605v2.573h1.376v-3.299l-43.768-25.606v-126.85l-91.063-53.254 18.512-10.839 122.89 71.869v108.215L1087.35 731h3.5l-109.51-63.053V559.731l-122.891-71.868 30.006-17.555 204.475 119.585v53.842l70.07 40.981v-1.61l-68.69-40.176v-53.842l-115.006-67.274h90.946l92.75 54.255v-1.61l-92.38-54.039h-93.7l-87.07-50.917 34.89-20.402 74.839 43.769h120.181l43.24 25.291v-1.61l-9.48-5.537h9.48v-1.394h-11.86l-31.02-18.144H999.948l-20.954-12.253h51.096l.15-.098 25.63-14.983h106.76l.35.216v-1.61h-104.75l28.85-16.868c2.4 1.022 5.77.904 7.94-.353 2.41-1.414 2.41-3.692 0-5.086-2.4-1.414-6.3-1.414-8.7 0-2.17 1.277-2.37 3.24-.62 4.654l-56.02 32.773h-53.109l-50.513-29.533 18.666-10.918-12.017-7.03h34.909l45.624 26.686c-1.74 1.414-1.55 3.378.62 4.654 2.41 1.414 6.3 1.414 8.71 0 2.4-1.414 2.4-3.692 0-5.086-2.17-1.276-5.55-1.374-7.95-.353l-46.636-27.275h-37.662l-25.547-14.943 15.701-9.19h27.854l24.5-14.334h18.279l41.291 24.152c-1.87 1.414-1.71 3.436.5 4.732 2.4 1.414 6.3 1.414 8.7 0 2.41-1.413 2.41-3.691 0-5.085-2.13-1.237-5.41-1.375-7.81-.432l-42.313-24.742h-19.015l-24.501 14.334H922.86l50.222-29.375h27.118l56.52 33.047h106.24v-1.394h-105.87l-56.52-33.048h-27.856l-.155.099-69.16 40.45-18.143-10.603 78.154-45.714h55.13l45.47 26.588h98.97v-1.394h-98.58l-43.09-25.194h141.67v-1.394H963.061l-.155.099-78.987 46.204-20.624-12.057 108.973-63.739h190.712v-1.394H1024l138.98-81.295v-1.61l-141.73 82.905h-47.974l103.314-60.421v-13.314l49.45-28.904c2.4 1.021 5.77.903 7.94-.354 2.41-1.413 2.41-3.691 0-5.085-2.4-1.414-6.3-1.414-8.7 0-2.17 1.276-2.36 3.24-.62 4.653l-26.92 15.749v-36.504l65.26-38.291v-1.61l-66.64 38.978v38.114l-21.15 12.371v13.313l-104.163 60.931.349.609-109.477 64.034-19.907-11.644 112.462-65.782V203.314L1163 81.334v-1.61L987.329 182.48V84.593L1121.79 5.95c.1.059.18.137.27.196 2.41 1.414 6.3 1.414 8.71 0 2.4-1.414 2.4-3.691 0-5.086ZM942.011 437.378l-161.541 94.49-161.521-94.47 161.54-94.49 161.522 94.47Z" fill="#889CFF" fill-opacity=".4"/></svg>